<mxfile host="app.diagrams.net" modified="2022-10-25T16:05:59.147Z" agent="5.0 (Windows NT 10.0; Win64; x64) AppleWebKit/537.36 (KHTML, like Gecko) Chrome/106.0.0.0 Safari/537.36" etag="6klcEGFbz_2RPiX-bqj6" version="20.0.4" type="github">
  <diagram id="Qg26-w_RHtkoewVcSizu" name="Page-1">
    <mxGraphModel dx="2062" dy="1160" grid="1" gridSize="10" guides="1" tooltips="1" connect="1" arrows="1" fold="1" page="1" pageScale="1" pageWidth="850" pageHeight="1100" math="0" shadow="0">
      <root>
        <mxCell id="0" />
        <mxCell id="1" parent="0" />
        <mxCell id="OOhRc9mGZbD4iBU65ISO-3" value="Power Automate / Process Advisor" style="swimlane;" vertex="1" parent="1">
          <mxGeometry x="250" y="91" width="370" height="130" as="geometry" />
        </mxCell>
        <mxCell id="OOhRc9mGZbD4iBU65ISO-13" value="Create Data Process with Template" style="rounded=0;whiteSpace=wrap;html=1;" vertex="1" parent="OOhRc9mGZbD4iBU65ISO-3">
          <mxGeometry x="30" y="40" width="310" height="30" as="geometry" />
        </mxCell>
        <mxCell id="OOhRc9mGZbD4iBU65ISO-14" value="Create Data Process without Template" style="rounded=0;whiteSpace=wrap;html=1;" vertex="1" parent="OOhRc9mGZbD4iBU65ISO-3">
          <mxGeometry x="30" y="80" width="310" height="30" as="geometry" />
        </mxCell>
        <mxCell id="OOhRc9mGZbD4iBU65ISO-7" value="Dataverse" style="swimlane;" vertex="1" parent="1">
          <mxGeometry x="250" y="428" width="370" height="130" as="geometry" />
        </mxCell>
        <mxCell id="OOhRc9mGZbD4iBU65ISO-20" value="Receive Analyze Request and Invoke Analysis" style="rounded=0;whiteSpace=wrap;html=1;" vertex="1" parent="OOhRc9mGZbD4iBU65ISO-7">
          <mxGeometry x="30" y="60" width="310" height="30" as="geometry" />
        </mxCell>
        <mxCell id="OOhRc9mGZbD4iBU65ISO-8" value="Process Insights Service" style="swimlane;" vertex="1" parent="1">
          <mxGeometry x="250" y="618" width="370" height="130" as="geometry" />
        </mxCell>
        <mxCell id="OOhRc9mGZbD4iBU65ISO-21" value="Analyze with V2 Analysis Engine" style="rounded=0;whiteSpace=wrap;html=1;" vertex="1" parent="OOhRc9mGZbD4iBU65ISO-8">
          <mxGeometry x="30" y="40" width="310" height="30" as="geometry" />
        </mxCell>
        <mxCell id="OOhRc9mGZbD4iBU65ISO-22" value="Invoke Power BI Report Refresh" style="rounded=0;whiteSpace=wrap;html=1;" vertex="1" parent="OOhRc9mGZbD4iBU65ISO-8">
          <mxGeometry x="30" y="80" width="310" height="30" as="geometry" />
        </mxCell>
        <mxCell id="OOhRc9mGZbD4iBU65ISO-11" value="Power Automate / Process Advisor" style="swimlane;" vertex="1" parent="1">
          <mxGeometry x="250" y="950" width="370" height="130" as="geometry" />
        </mxCell>
        <mxCell id="OOhRc9mGZbD4iBU65ISO-12" value="Autoredirect to Analytics Page &amp;amp; Display Power BI Report" style="rounded=0;whiteSpace=wrap;html=1;" vertex="1" parent="OOhRc9mGZbD4iBU65ISO-11">
          <mxGeometry x="30" y="60" width="310" height="30" as="geometry" />
        </mxCell>
        <mxCell id="OOhRc9mGZbD4iBU65ISO-15" value="Power Platform Dataflow Service" style="swimlane;dashed=1;" vertex="1" parent="1">
          <mxGeometry x="250" y="271" width="370" height="130" as="geometry" />
        </mxCell>
        <mxCell id="OOhRc9mGZbD4iBU65ISO-17" value="Ingest Data into Data Lake CSV File" style="rounded=0;whiteSpace=wrap;html=1;dashed=1;" vertex="1" parent="OOhRc9mGZbD4iBU65ISO-15">
          <mxGeometry x="30" y="60" width="310" height="30" as="geometry" />
        </mxCell>
        <mxCell id="OOhRc9mGZbD4iBU65ISO-16" value="Power BI" style="swimlane;dashed=1;" vertex="1" parent="1">
          <mxGeometry x="250" y="798" width="370" height="130" as="geometry" />
        </mxCell>
        <mxCell id="OOhRc9mGZbD4iBU65ISO-19" value="Refresh Power BI Report" style="rounded=0;whiteSpace=wrap;html=1;dashed=1;" vertex="1" parent="OOhRc9mGZbD4iBU65ISO-16">
          <mxGeometry x="30" y="60" width="310" height="30" as="geometry" />
        </mxCell>
        <mxCell id="OOhRc9mGZbD4iBU65ISO-23" value="" style="shape=flexArrow;endArrow=classic;html=1;rounded=0;exitX=0;exitY=0.5;exitDx=0;exitDy=0;edgeStyle=orthogonalEdgeStyle;entryX=0;entryY=0.5;entryDx=0;entryDy=0;" edge="1" parent="1" source="OOhRc9mGZbD4iBU65ISO-3" target="OOhRc9mGZbD4iBU65ISO-11">
          <mxGeometry width="50" height="50" relative="1" as="geometry">
            <mxPoint x="-100" y="400" as="sourcePoint" />
            <mxPoint x="-50" y="350" as="targetPoint" />
            <Array as="points">
              <mxPoint x="170" y="156" />
              <mxPoint x="170" y="1015" />
            </Array>
          </mxGeometry>
        </mxCell>
        <mxCell id="OOhRc9mGZbD4iBU65ISO-31" value="Step 6" style="edgeLabel;html=1;align=center;verticalAlign=middle;resizable=0;points=[];" vertex="1" connectable="0" parent="OOhRc9mGZbD4iBU65ISO-23">
          <mxGeometry x="-0.1248" y="2" relative="1" as="geometry">
            <mxPoint as="offset" />
          </mxGeometry>
        </mxCell>
        <mxCell id="OOhRc9mGZbD4iBU65ISO-24" value="" style="shape=flexArrow;endArrow=classic;html=1;rounded=0;edgeStyle=orthogonalEdgeStyle;entryX=1;entryY=0.5;entryDx=0;entryDy=0;exitX=1;exitY=0.5;exitDx=0;exitDy=0;" edge="1" parent="1" source="OOhRc9mGZbD4iBU65ISO-3" target="OOhRc9mGZbD4iBU65ISO-7">
          <mxGeometry width="50" height="50" relative="1" as="geometry">
            <mxPoint x="640" y="118" as="sourcePoint" />
            <mxPoint x="260" y="313" as="targetPoint" />
            <Array as="points">
              <mxPoint x="700" y="156" />
              <mxPoint x="700" y="493" />
            </Array>
          </mxGeometry>
        </mxCell>
        <mxCell id="OOhRc9mGZbD4iBU65ISO-28" value="Step 3" style="edgeLabel;html=1;align=center;verticalAlign=middle;resizable=0;points=[];" vertex="1" connectable="0" parent="OOhRc9mGZbD4iBU65ISO-24">
          <mxGeometry x="-0.1472" y="1" relative="1" as="geometry">
            <mxPoint as="offset" />
          </mxGeometry>
        </mxCell>
        <mxCell id="OOhRc9mGZbD4iBU65ISO-25" value="" style="shape=flexArrow;endArrow=classic;html=1;rounded=0;exitX=0.5;exitY=1;exitDx=0;exitDy=0;" edge="1" parent="1" source="OOhRc9mGZbD4iBU65ISO-7" target="OOhRc9mGZbD4iBU65ISO-8">
          <mxGeometry width="50" height="50" relative="1" as="geometry">
            <mxPoint x="100" y="858" as="sourcePoint" />
            <mxPoint x="150" y="808" as="targetPoint" />
          </mxGeometry>
        </mxCell>
        <mxCell id="OOhRc9mGZbD4iBU65ISO-29" value="Step 4" style="edgeLabel;html=1;align=center;verticalAlign=middle;resizable=0;points=[];" vertex="1" connectable="0" parent="OOhRc9mGZbD4iBU65ISO-25">
          <mxGeometry x="-0.4333" y="-1" relative="1" as="geometry">
            <mxPoint as="offset" />
          </mxGeometry>
        </mxCell>
        <mxCell id="OOhRc9mGZbD4iBU65ISO-26" value="" style="shape=flexArrow;endArrow=classic;html=1;rounded=0;exitX=0.5;exitY=1;exitDx=0;exitDy=0;entryX=0.5;entryY=0;entryDx=0;entryDy=0;" edge="1" parent="1" source="OOhRc9mGZbD4iBU65ISO-8" target="OOhRc9mGZbD4iBU65ISO-16">
          <mxGeometry width="50" height="50" relative="1" as="geometry">
            <mxPoint x="100" y="948" as="sourcePoint" />
            <mxPoint x="150" y="898" as="targetPoint" />
          </mxGeometry>
        </mxCell>
        <mxCell id="OOhRc9mGZbD4iBU65ISO-30" value="Step 5" style="edgeLabel;html=1;align=center;verticalAlign=middle;resizable=0;points=[];" vertex="1" connectable="0" parent="OOhRc9mGZbD4iBU65ISO-26">
          <mxGeometry x="-0.4" y="1" relative="1" as="geometry">
            <mxPoint as="offset" />
          </mxGeometry>
        </mxCell>
        <mxCell id="OOhRc9mGZbD4iBU65ISO-27" value="Step 2" style="shape=flexArrow;endArrow=classic;html=1;rounded=0;exitX=0.5;exitY=1;exitDx=0;exitDy=0;entryX=0.5;entryY=0;entryDx=0;entryDy=0;" edge="1" parent="1" source="OOhRc9mGZbD4iBU65ISO-3" target="OOhRc9mGZbD4iBU65ISO-15">
          <mxGeometry width="50" height="50" relative="1" as="geometry">
            <mxPoint x="190" y="311" as="sourcePoint" />
            <mxPoint x="240" y="261" as="targetPoint" />
          </mxGeometry>
        </mxCell>
        <mxCell id="OOhRc9mGZbD4iBU65ISO-32" value="User Starts to Create Process" style="rounded=0;whiteSpace=wrap;html=1;" vertex="1" parent="1">
          <mxGeometry x="250" y="20" width="370" height="30" as="geometry" />
        </mxCell>
        <mxCell id="OOhRc9mGZbD4iBU65ISO-33" value="Step 1" style="shape=flexArrow;endArrow=classic;html=1;rounded=0;exitX=0.5;exitY=1;exitDx=0;exitDy=0;entryX=0.5;entryY=0;entryDx=0;entryDy=0;" edge="1" parent="1" source="OOhRc9mGZbD4iBU65ISO-32" target="OOhRc9mGZbD4iBU65ISO-3">
          <mxGeometry width="50" height="50" relative="1" as="geometry">
            <mxPoint x="434.5" y="50" as="sourcePoint" />
            <mxPoint x="434.5" y="100" as="targetPoint" />
          </mxGeometry>
        </mxCell>
      </root>
    </mxGraphModel>
  </diagram>
</mxfile>
